<svg xmlns="http://www.w3.org/2000/svg" width="52" height="38" viewBox="0 0 52 38">
  <path fill="#FFF" d="M51.99991,19.00002 C51.99991,18.53722 51.72001,17.92272 51.43601,17.62452 L35.43631,0.62419 C34.68931,-0.14811 33.47911,-0.23761 32.60821,0.54619 C31.82961,1.24689 31.81021,2.61349 32.53021,3.37439 L45.37371,16.99962 L2.00009,16.99962 C0.89549,16.99962 9e-05,17.89502 9e-05,18.99962 C9e-05,20.10422 0.89549,20.99972 2.00009,20.99972 L45.37371,20.99972 L32.53021,34.62492 C31.81031,35.38572 31.86141,36.71872 32.60821,37.45302 C33.39671,38.22822 34.70071,38.15922 35.43631,37.37502 L51.43601,20.37482 C51.90611,19.91372 51.99201,19.46962 51.99991,19.00002 Z"/>
</svg>
