<svg width="400" height="400" viewBox="0 0 400 400" fill="none" xmlns="http://www.w3.org/2000/svg">
<path d="M163.381 148.839L200.06 124.392C194.033 106.766 194.707 87.5404 201.954 70.3786C209.201 53.2169 222.515 39.3182 239.358 31.3304C256.201 23.3427 275.397 21.8241 293.289 27.0639C311.181 32.3038 326.518 43.9359 336.378 59.7443C346.239 75.5527 349.933 94.4324 346.758 112.787C343.583 131.141 333.761 147.687 319.162 159.273C304.563 170.859 286.208 176.674 267.593 175.612C248.979 174.549 231.406 166.683 218.223 153.511C217.054 152.316 215.912 151.094 214.824 149.844L175.861 175.812C177.243 181.596 177.937 187.523 177.927 193.469C177.923 197.425 177.614 201.376 177.003 205.285L220.915 233.969C232.736 219.45 249.539 209.839 268.057 207.004C286.575 204.17 305.487 208.314 321.118 218.632C336.748 228.949 347.981 244.703 352.634 262.833C357.287 280.963 355.027 300.173 346.294 316.731C337.561 333.289 322.978 346.012 305.378 352.429C287.779 358.845 268.421 358.496 251.065 351.45C233.709 344.403 219.595 331.163 211.465 314.301C203.336 297.439 201.771 278.16 207.075 260.209L166.453 233.562C158.138 246.936 145.864 257.394 131.333 263.487C116.801 269.58 100.733 271.006 85.3539 267.567C69.9752 264.128 56.0483 255.995 45.5038 244.294C34.9593 232.594 28.3196 217.906 26.5051 202.267C24.6906 186.628 27.7912 170.812 35.3771 157.012C42.963 143.212 54.6583 132.112 68.8419 125.25C83.0255 118.388 98.9947 116.104 114.536 118.715C130.077 121.325 144.42 128.702 155.577 139.821C158.397 142.631 161.005 145.645 163.381 148.839ZM138.61 227.179C133.81 231.995 128.105 235.818 121.822 238.426C115.539 241.034 108.802 242.377 101.999 242.377C95.1951 242.377 88.4584 241.034 82.1755 238.426C75.8926 235.818 70.1873 231.995 65.3871 227.179L60.8464 221.23L64.1092 218.676C70.9068 214.656 81.1575 215.716 87.8462 211.043C88.3302 210.26 88.7573 209.443 89.1242 208.599C89.7496 207.159 90.3206 205.611 90.674 204.551C89.1919 202.718 87.8383 200.785 86.6227 198.766L82.517 192.301C81.2044 190.56 80.3955 188.493 80.1786 186.325C80.1398 185.587 80.2797 184.851 80.5865 184.179C80.893 183.512 81.3835 182.947 82.0004 182.549C82.3025 182.335 82.6316 182.161 82.9792 182.033C82.6968 178.128 82.6332 174.21 82.7889 170.298C82.8762 169.379 83.0491 168.469 83.3055 167.582C84.4433 163.876 86.9129 160.722 90.239 158.727C92.048 157.598 94.0067 156.73 96.0577 156.146C97.3628 155.793 94.9429 151.61 96.3024 151.474C102.828 150.795 113.405 156.744 118.055 161.688C120.536 164.475 121.968 168.038 122.106 171.765L121.834 182.413C122.368 182.546 122.854 182.825 123.238 183.218C123.622 183.612 123.889 184.104 124.009 184.641C124.236 186.588 123.836 188.558 122.867 190.263L118.191 197.978C116.596 200.836 114.661 203.49 112.426 205.882L113.052 206.779C113.947 208.18 114.966 209.498 116.097 210.718C121.535 214.548 134.613 215.471 139.671 218.269H139.861L143.178 220.985C141.796 223.032 140.289 224.992 138.665 226.853L138.61 227.179ZM145.68 149.844C135.576 139.745 122.279 133.458 108.055 132.055C93.8312 130.652 79.5604 134.219 67.6745 142.15C55.7886 150.081 47.0232 161.883 42.872 175.547C38.7207 189.21 39.4405 203.889 44.9086 217.082C50.3767 230.275 60.2549 241.165 72.8597 247.897C85.4646 254.629 100.016 256.786 114.035 254.001C128.053 251.216 140.671 243.661 149.739 232.623C158.806 221.585 163.762 207.748 163.761 193.469C163.773 185.366 162.181 177.34 159.078 169.854C155.975 162.367 151.422 155.567 145.68 149.844ZM317.223 313.504C301.561 330.862 258.764 332.057 242.64 314.917V311.277C242.64 301.932 258.193 301.769 266.486 296.799C271.924 293.512 271.054 290.198 271.027 284.738H262.19C239.568 284.738 254.468 286.531 257.54 261.948C262.135 227.26 297.129 227.233 302.295 261.948C305.613 285.607 319.697 284.656 297.646 284.656H288.809C288.809 290.687 287.83 293.756 294.084 297.152C300.338 300.547 317.196 302.258 317.196 310.733V313.45L317.223 313.504ZM323.558 238.18C313.464 228.078 300.177 221.783 285.96 220.368C271.743 218.954 257.474 222.506 245.584 230.42C233.693 238.334 224.917 250.121 220.748 263.774C216.58 277.427 217.277 292.101 222.721 305.298C228.166 318.494 238.021 329.398 250.609 336.151C263.196 342.904 277.737 345.09 291.757 342.335C305.776 339.581 318.406 332.057 327.496 321.045C336.587 310.033 341.575 296.214 341.612 281.94C341.624 273.837 340.032 265.812 336.929 258.325C333.826 250.839 329.273 244.039 323.531 238.316L323.558 238.18ZM308.685 130.015C303.885 134.832 298.18 138.654 291.897 141.262C285.614 143.87 278.877 145.213 272.073 145.213C265.27 145.213 258.533 143.87 252.25 141.262C245.967 138.654 240.262 134.832 235.462 130.015L230.921 124.093L234.211 121.676C241.009 117.656 251.259 118.715 257.948 114.043C258.421 113.277 258.839 112.478 259.199 111.652C259.824 110.213 260.368 108.664 260.749 107.605C259.255 105.774 257.892 103.841 256.67 101.819L252.564 95.3C251.263 93.5535 250.455 91.4895 250.226 89.3241C250.187 88.5864 250.327 87.8502 250.634 87.1781C250.934 86.5074 251.426 85.9403 252.048 85.5483C252.356 85.3282 252.695 85.1544 253.054 85.0322C252.758 81.1279 252.695 77.2095 252.864 73.2976C252.942 72.3789 253.106 71.4695 253.353 70.5813C254.493 66.8689 256.974 63.7126 260.314 61.726C262.106 60.5343 264.068 59.6186 266.132 59.0096C267.438 58.6293 265.018 54.4733 266.35 54.3375C272.903 53.6584 283.453 59.6072 288.102 64.551C290.586 67.3237 292.01 70.8826 292.126 74.6015L291.882 85.2767C292.409 85.4169 292.888 85.6985 293.266 86.0911C293.645 86.4838 293.909 86.9724 294.03 87.5041C294.253 89.4486 293.863 91.4144 292.915 93.1269L288.075 101.032C286.49 103.896 284.553 106.551 282.311 108.936L282.936 109.832C283.841 111.234 284.869 112.552 286.008 113.771C291.446 117.574 304.552 118.498 309.582 121.323H309.8L313.117 124.039C311.726 126.077 310.209 128.028 308.576 129.879L308.685 130.015ZM315.727 56.1303C305.623 46.0307 292.327 39.7436 278.103 38.3406C263.879 36.9376 249.608 40.5054 237.722 48.436C225.836 56.3666 217.071 68.1693 212.919 81.8328C208.768 95.4963 209.488 110.175 214.956 123.368C220.424 136.561 230.302 147.451 242.907 154.183C255.512 160.915 270.064 163.073 284.082 160.287C298.101 157.502 310.719 149.947 319.786 138.909C328.854 127.871 333.809 114.034 333.809 99.7548C333.82 91.6518 332.229 83.6265 329.126 76.1399C326.023 68.6533 321.469 61.8532 315.727 56.1303Z" fill="#006532"/>
</svg>
