<svg width="400" height="400" viewBox="0 0 400 400" fill="none" xmlns="http://www.w3.org/2000/svg">
<path fill-rule="evenodd" clip-rule="evenodd" d="M236.881 211.408C240.773 206.154 245.52 201.589 250.923 197.903C260.545 191.307 272.091 187.515 285.769 185.1C286.828 184.919 287.915 185.164 288.792 185.783C289.67 186.401 290.266 187.341 290.45 188.398C290.543 188.918 290.532 189.452 290.418 189.968C290.303 190.484 290.087 190.973 289.783 191.405C289.478 191.837 289.09 192.205 288.643 192.487C288.195 192.769 287.695 192.959 287.173 193.047C274.561 195.28 264.03 198.682 255.448 204.552C248.138 209.645 242.199 216.46 238.155 224.393C270.973 227.666 290.398 224.393 304.518 214.213C318.639 204.032 327.922 186.45 340.3 161.155C336.686 161.388 332.915 161.57 329.066 161.726C304.18 162.895 277.058 164.141 259.921 179.1C255.231 183.269 250.963 187.888 247.179 192.891C243.401 197.79 239.927 202.916 236.777 208.24V211.408H236.881ZM225.257 128.302C223.801 128.302 222.345 128.042 220.914 127.86C219.484 127.679 217.716 127.393 216.234 127.133C214.779 126.886 213.339 126.565 211.917 126.172V113.706C213.737 113.862 215.688 113.992 217.794 114.096C219.9 114.2 222.033 114.278 224.191 114.33H230.224C231.699 114.356 233.172 114.225 234.619 113.94C235.589 113.77 236.49 113.329 237.219 112.667C237.544 112.307 237.793 111.885 237.953 111.427C238.112 110.969 238.178 110.483 238.146 109.999C238.115 109.515 237.986 109.042 237.769 108.609C237.552 108.175 237.25 107.789 236.881 107.473C236.021 106.873 234.991 106.564 233.943 106.59H229.73C224.704 106.947 219.716 105.501 215.662 102.513C208.744 96.6436 209.238 79.5808 216.156 73.9452C218.796 71.8779 221.935 70.5431 225.257 70.0756V63.6348H236.621V69.8159L238.415 69.9717C240.626 70.2054 242.706 70.5171 244.656 70.8547C246.607 71.1923 248.349 71.5559 249.857 71.9195V84.1517C247.413 83.9439 244.656 83.7621 241.588 83.6322C238.519 83.5024 235.737 83.4245 233.24 83.4245C231.899 83.4115 230.559 83.5157 229.236 83.7361C228.259 83.9018 227.354 84.3538 226.635 85.0347C225.938 85.8625 225.582 86.9245 225.64 88.005C225.698 89.0855 226.165 90.1034 226.947 90.8521C228.091 91.6316 229.467 91.998 230.848 91.8909H236.049C239.285 91.7803 242.493 92.5143 245.358 94.0205C247.758 95.3245 249.714 97.3139 250.975 99.7341C253.862 105.318 253.576 116.355 250.195 121.42C248.439 124.08 245.764 126.003 242.68 126.821C240.696 127.366 238.669 127.74 236.621 127.938V134.924H225.257V128.12V128.302ZM56.2032 242.053H96.4318C98.3401 242.067 100.166 242.834 101.51 244.186C102.855 245.539 103.609 247.367 103.609 249.273V331.938C103.602 333.844 102.841 335.669 101.492 337.017C100.142 338.365 98.3141 339.125 96.4058 339.132H56.2032C54.2949 339.125 52.4667 338.365 51.1173 337.017C49.768 335.669 49.0069 333.844 49 331.938L49 249.273C49 247.363 49.7581 245.53 51.1082 244.177C52.4583 242.824 54.2904 242.06 56.2032 242.053ZM114.635 330.873V249.845H151.171C166.773 252.623 182.142 261.012 197.641 270.621H226.011C238.857 271.4 245.567 284.412 233.11 292.956C223.151 300.228 210.019 299.812 196.704 298.617C187.421 298.15 187.005 310.616 196.704 310.668C200.059 310.928 203.7 310.122 206.898 310.122C223.697 310.122 237.531 306.902 245.905 293.657L250.143 283.736L292.374 262.83C313.49 255.896 328.494 277.945 312.944 293.293C283.514 314.772 252.025 333.284 218.938 348.559C195.534 362.713 172.364 362.246 149.065 348.559L114.635 330.873ZM231.862 40.0015C247.669 39.9189 262.892 45.9644 274.325 56.8655C285.759 67.7665 292.512 82.6727 293.162 98.4461C293.812 114.219 288.31 129.63 277.812 141.433C267.315 153.236 252.641 160.51 236.881 161.726V193.228C238.181 191.385 239.481 189.619 240.782 188.034C244.89 182.622 249.505 177.613 254.564 173.075C273.703 156.272 302.464 154.896 328.702 153.727C334.761 153.441 340.69 153.156 346.645 152.662C347.36 152.614 348.076 152.748 348.726 153.052C349.688 153.517 350.425 154.345 350.776 155.353C351.127 156.361 351.063 157.467 350.598 158.428C336.165 188.19 325.972 208.577 309.251 220.757C293.44 232.184 272.169 235.924 236.881 232.366V238.495C257.294 240.495 276.2 243.04 286.731 251.481L248.817 270.361C247.404 268.143 245.649 266.162 243.616 264.492C239.153 260.896 233.724 258.701 228.014 258.181C227.384 258.098 226.75 258.055 226.115 258.051H201.203C192.569 252.573 183.518 247.779 174.133 243.715C187.343 239.171 204.87 238.002 222.501 237.846V221.277C212.522 222.352 202.432 221.649 192.7 219.199C186.813 217.563 181.329 214.73 176.59 210.877C171.851 207.025 167.96 202.237 165.161 196.812C165.128 196.729 165.084 196.651 165.031 196.579L153.667 173.205C153.384 172.624 153.219 171.992 153.181 171.347C153.142 170.702 153.232 170.056 153.445 169.445C153.657 168.835 153.989 168.272 154.42 167.79C154.85 167.307 155.372 166.915 155.956 166.635C156.712 166.256 157.556 166.086 158.4 166.141L196.47 168.478H197.094C204.194 169.361 211.995 170.348 219.042 176.555C220.209 177.586 221.32 178.679 222.371 179.828C222.371 172.504 222.839 167.595 222.917 161.362C207.576 159.205 193.63 151.304 183.904 139.261C174.179 127.218 169.401 111.933 170.538 96.5023C171.675 81.072 178.643 66.6504 190.03 56.1594C201.417 45.6683 216.371 39.8923 231.862 40.0015ZM231.862 49.8184C243.715 49.8124 255.204 53.9116 264.37 61.4173C273.536 68.923 279.812 79.3708 282.129 90.9803C284.445 102.59 282.66 114.642 277.075 125.084C271.491 135.526 262.454 143.711 251.505 148.243C240.555 152.776 228.37 153.377 217.027 149.943C205.683 146.509 195.883 139.252 189.297 129.41C182.71 119.568 179.745 107.75 180.906 95.9691C182.067 84.1883 187.283 73.1741 195.664 64.8035C200.413 60.0489 206.055 56.2775 212.267 53.706C218.479 51.1345 225.138 49.8134 231.862 49.8184ZM222.501 211.408V210.629C221.331 209.174 219.956 207.897 218.418 206.837C214.644 204.453 210.439 202.83 206.04 202.059C205.467 202.012 204.91 201.843 204.407 201.564C203.905 201.284 203.468 200.901 203.126 200.439C202.784 199.977 202.545 199.447 202.426 198.885C202.306 198.323 202.308 197.742 202.431 197.181C202.555 196.62 202.797 196.092 203.142 195.633C203.487 195.173 203.926 194.792 204.431 194.516C204.935 194.24 205.493 194.075 206.067 194.032C206.64 193.989 207.216 194.069 207.756 194.267C212.983 195.216 217.984 197.137 222.501 199.929V198.89C222.319 198.371 222.111 197.825 221.903 197.332C219.899 192.223 216.729 187.652 212.645 183.983C207.834 179.75 201.645 178.971 195.976 178.269H195.846L166.201 176.451L174.003 192.268C176.199 196.511 179.246 200.257 182.955 203.273C186.664 206.289 190.955 208.51 195.56 209.798C204.374 211.927 213.496 212.472 222.501 211.408Z" fill="#006532"/>
</svg>
