<svg width="400" height="400" viewBox="0 0 400 400" fill="none" xmlns="http://www.w3.org/2000/svg">
<path d="M180.729 351.011C185.696 351.011 189.751 355.039 189.751 360.006C189.751 364.972 185.723 369 180.729 369H67.9685C62.2022 369 56.96 366.655 53.1526 362.847C49.3452 359.068 47 353.853 47 348.059V50.9685C47 45.1746 49.3452 39.96 53.1526 36.1526C56.96 32.3452 62.1746 30 67.9685 30H325.384C331.151 30 336.393 32.3728 340.2 36.1526C344.008 39.96 346.353 45.1746 346.353 50.9685V199.817C346.353 204.783 342.325 208.812 337.359 208.812C332.392 208.812 328.364 204.783 328.364 199.817V50.9685C328.364 50.1684 328.033 49.4235 327.481 48.8992C326.93 48.3474 326.185 48.0164 325.412 48.0164H67.9685C67.1684 48.0164 66.4235 48.3474 65.8717 48.8717C65.3474 49.451 65.0164 50.1684 65.0164 50.9685V348.059C65.0164 348.859 65.3474 349.604 65.8992 350.128C66.451 350.68 67.196 351.011 67.9961 351.011H180.729ZM140.641 189.802C138.93 186.85 140.172 178.407 143.841 175.428C154.326 169.303 168.783 171.206 178.881 164.143C179.46 163.26 180.095 161.991 180.729 160.584C181.64 158.487 182.495 156.197 183.019 154.625C180.785 151.976 178.853 148.996 177.032 146.072L170.962 136.415C168.755 133.104 167.596 130.069 167.514 127.586C167.486 126.428 167.679 125.352 168.121 124.413C168.562 123.42 169.252 122.62 170.218 121.986C170.659 121.682 171.156 121.434 171.68 121.241C171.266 115.998 171.128 109.404 171.404 103.859C171.542 102.562 171.79 101.238 172.149 99.9134C173.694 94.3678 177.584 89.8982 182.412 86.8357C185.061 85.1527 187.986 83.8559 191.021 83.0006C192.952 82.4488 189.365 76.2962 191.379 76.0755C201.036 75.0823 216.624 83.8835 223.356 91.1673C226.722 94.8092 228.847 99.6651 229.316 106.066L228.929 121.82C230.612 122.344 231.688 123.393 232.13 125.131C232.626 127.062 232.102 129.738 230.447 133.435C230.419 133.491 230.392 133.573 230.336 133.629L223.411 145.023C220.873 149.217 218.28 153.411 214.914 156.721C215.217 157.163 215.548 157.604 215.852 158.046C217.231 160.06 218.611 162.074 220.376 163.867C220.432 163.923 220.487 164.005 220.514 164.06C228.488 169.689 247.884 171.068 255.333 175.207L255.637 175.372C259.472 178.325 260.658 186.767 258.892 189.719H140.641V189.802ZM329.22 248.072C327.757 246.665 326.074 246.003 324.143 246.031C322.184 246.058 320.529 246.831 319.177 248.266L308.003 259.909L339.373 290.203L350.657 278.449C352.009 277.07 352.561 275.304 352.533 273.373C352.506 271.469 351.816 269.703 350.436 268.406L329.22 248.072ZM280.247 350.515C276.108 351.839 271.97 353.191 267.859 354.543C263.721 355.922 259.582 357.302 255.471 358.681C245.732 361.882 240.269 363.648 239.11 363.979C238.007 364.31 238.641 359.757 241.124 350.211L248.877 320.331L298.043 270.172L329.385 300.328L280.247 350.515ZM134.571 293.1C129.605 293.1 125.549 289.016 125.549 283.967C125.549 278.918 129.577 274.835 134.571 274.835H195.849C200.815 274.835 204.871 278.918 204.871 283.967C204.871 289.016 200.843 293.1 195.849 293.1H134.571ZM134.571 236.016C129.605 236.016 125.577 231.987 125.577 226.994C125.577 222.027 129.605 217.999 134.571 217.999H256.106C261.072 217.999 265.1 222.027 265.1 226.994C265.1 231.96 261.072 236.016 256.106 236.016H134.571Z" fill="#006532"/>
</svg>
